<svg xmlns="http://www.w3.org/2000/svg" version="1.1" xmlns:xlink="http://www.w3.org/1999/xlink" xmlns:svgjs="http://svgjs.dev/svgjs" width="2000" height="1222" viewBox="0 0 2000 1222"><g transform="matrix(1,0,0,1,-1.2121212121212466,0.9042979661846857)"><svg viewBox="0 0 396 242" data-background-color="#000000" preserveAspectRatio="xMidYMid meet" height="1222" width="2000" xmlns="http://www.w3.org/2000/svg" xmlns:xlink="http://www.w3.org/1999/xlink"><g id="tight-bounds" transform="matrix(1,0,0,1,0.2400000000000091,-0.17908355795147202)"><svg viewBox="0 0 395.52 242.35816711590294" height="242.35816711590294" width="395.52"><g><svg viewBox="0 0 395.52 242.35816711590294" height="242.35816711590294" width="395.52"><g><svg viewBox="0 0 395.52 242.35816711590294" height="242.35816711590294" width="395.52"><g id="textblocktransform"><svg viewBox="0 0 395.52 242.35816711590294" height="242.35816711590294" width="395.52" id="textblock"><g><svg viewBox="0 0 395.52 242.35816711590294" height="242.35816711590294" width="395.52"><g transform="matrix(1,0,0,1,0,0)"><svg width="395.52" viewBox="2.8 -33.95 55.650000000000006 34.1" height="242.35816711590294" data-palette-color="url(#3f985e24-8c70-4459-83b9-8f3bba4e79c4)"></svg></g></svg></g></svg></g></svg></g></svg></g><defs></defs><mask id="81fd856d-64d2-4c18-b1e5-3903fc67c337"><g id="SvgjsG3117"><svg viewBox="0 0 395.52 242.35816711590294" height="242.35816711590294" width="395.52"><g><svg viewBox="0 0 395.52 242.35816711590294" height="242.35816711590294" width="395.52"><g><svg viewBox="0 0 395.52 242.35816711590294" height="242.35816711590294" width="395.52"><g id="SvgjsG3116"><svg viewBox="0 0 395.52 242.35816711590294" height="242.35816711590294" width="395.52" id="SvgjsSvg3115"><g><svg viewBox="0 0 395.52 242.35816711590294" height="242.35816711590294" width="395.52"><g transform="matrix(1,0,0,1,0,0)"><svg width="395.52" viewBox="2.8 -33.95 55.650000000000006 34.1" height="242.35816711590294" data-palette-color="url(#3f985e24-8c70-4459-83b9-8f3bba4e79c4)"><path d="M2.8-33.95L2.8-33.95Q3.55-33.9 4.67-33.88 5.8-33.85 7.05-33.83 8.3-33.8 9.43-33.8 10.55-33.8 11.2-33.8L11.2-33.8 11.2-6.9Q11.2-5.05 11.55-4.05 11.9-3.05 12.9-2.65 13.9-2.25 15.75-2.25L15.75-2.25 15.75 0Q14.35 0 12.53 0 10.7 0 8.83 0.03 6.95 0.05 5.35 0.08 3.75 0.1 2.8 0.15L2.8 0.15Q2.8-0.55 2.85-1.07 2.9-1.6 3.05-2L3.05-2Q4.4-2.1 5.15-2.5 5.9-2.9 6.2-3.93 6.5-4.95 6.5-6.9L6.5-6.9 6.5-27.45Q6.5-29.15 6.2-30.05 5.9-30.95 5.15-31.35 4.4-31.75 3.05-31.8L3.05-31.8Q2.9-32.2 2.85-32.77 2.8-33.35 2.8-33.95ZM25.8-8.55L25.8-8.55Q26.55-8.35 27.05-8.08 27.55-7.8 28-7.35L28-7.35Q27.45-5.65 27.08-3.65 26.7-1.65 26.45 0.1L26.45 0.1Q25.5 0.05 23.88 0.05 22.25 0.05 20.18 0.03 18.1 0 15.75 0L15.75 0 15.75-2.25 16.05-2.25Q19.65-2.25 21.48-2.98 23.3-3.7 24.2-5.1 25.1-6.5 25.8-8.55ZM22.3-22.5L22.3-22.5Q22.25-21.25 22.23-19.8 22.2-18.35 22.2-17.05L22.2-17.05Q22.2-15.75 22.23-14.15 22.25-12.55 22.3-11.25L22.3-11.25Q21.65-11.25 21.1-11.3 20.55-11.35 20-11.5L20-11.5Q19.8-14.1 18.63-15.03 17.45-15.95 14.35-15.95L14.35-15.95 10.75-15.95 10.75-18.1 14.35-18.1Q17.45-18.1 18.65-18.9 19.85-19.7 19.9-22.15L19.9-22.15Q20.55-22.35 21.1-22.43 21.65-22.5 22.3-22.5ZM25.25-33.95L25.25-33.95Q25.35-32.85 25.5-31.4 25.65-29.95 25.85-28.55 26.05-27.15 26.3-26.05L26.3-26.05Q25.9-25.7 25.33-25.58 24.75-25.45 24.05-25.45L24.05-25.45Q23.95-27 23.25-28.45 22.55-29.9 20.83-30.85 19.1-31.8 15.85-31.8L15.85-31.8 10.15-31.8 11.2-33.8Q15.15-33.8 17.98-33.83 20.8-33.85 22.63-33.9 24.45-33.95 25.25-33.95ZM32.9-33.95L32.9-33.95Q33.9-33.9 35.32-33.85 36.75-33.8 38.1-33.8L38.1-33.8Q39.3-33.8 40.5-33.83 41.7-33.85 42.9-33.88 44.1-33.9 45.25-33.9L45.25-33.9Q48.15-33.9 50.55-33.3 52.95-32.7 54.42-31.13 55.9-29.55 55.9-26.6L55.9-26.6Q55.9-23.4 53.95-21.13 52-18.85 48.65-18.35L48.65-18.35Q51.3-18.2 53.52-17.38 55.75-16.55 57.1-14.75 58.45-12.95 58.45-9.85L58.45-9.85Q58.45-7.15 57.22-4.9 56-2.65 53.35-1.33 50.7 0 46.45 0L46.45 0Q45.05 0 43.12 0 41.2 0 39.2 0.03 37.2 0.05 35.5 0.08 33.8 0.1 32.85 0.15L32.85 0.15Q32.85-0.55 32.9-1.07 32.95-1.6 33.1-2L33.1-2Q34.45-2.1 35.2-2.5 35.95-2.9 36.27-3.93 36.6-4.95 36.6-6.9L36.6-6.9 36.6-27.45Q36.6-29.15 36.3-30.05 36-30.95 35.25-31.35 34.5-31.75 33.15-31.8L33.15-31.8Q33-32.2 32.95-32.77 32.9-33.35 32.9-33.95ZM40.6-31.3L41.3-32.05 41.3-6.9Q41.3-4.85 41.67-3.83 42.05-2.8 43.07-2.48 44.1-2.15 45.95-2.15L45.95-2.15Q49.65-2.15 51.37-4.03 53.1-5.9 53.1-9.15L53.1-9.15Q53.1-11.5 52.15-12.98 51.2-14.45 49.62-15.23 48.05-16 46.17-16.3 44.3-16.6 42.45-16.6L42.45-16.6 40.7-16.6 40.7-18.75 42.85-18.75Q46.1-18.75 47.8-19.65 49.5-20.55 50.15-22.03 50.8-23.5 50.8-25.1L50.8-25.1Q50.8-27.7 49.62-29.13 48.45-30.55 46.72-31.13 45-31.7 43.35-31.7L43.35-31.7Q42.7-31.7 42.07-31.63 41.45-31.55 40.6-31.3L40.6-31.3Z" opacity="1" transform="matrix(1,0,0,1,0,0)" fill="white" class="wordmark-text-0" id="SvgjsPath3114"></path></svg></g></svg></g></svg></g></svg></g></svg></g><defs><mask></mask></defs></svg><rect width="395.52" height="242.35816711590294" fill="black" stroke="none" visibility="hidden"></rect></g></mask><linearGradient x1="0" x2="1" y1="0.578" y2="0.595" id="3f985e24-8c70-4459-83b9-8f3bba4e79c4"><stop stop-color="#6ee2f5" offset="0"></stop><stop stop-color="#6454f0" offset="1"></stop></linearGradient><rect width="395.52" height="242.35816711590294" fill="url(#3f985e24-8c70-4459-83b9-8f3bba4e79c4)" mask="url(#81fd856d-64d2-4c18-b1e5-3903fc67c337)" data-fill-palette-color="primary"></rect></svg><rect width="395.52" height="242.35816711590294" fill="none" stroke="none" visibility="hidden"></rect></g></svg></g></svg>